<svg width="36" height="36" viewBox="0 0 36 36" fill="none" xmlns="http://www.w3.org/2000/svg">
<mask id="mask0_145_1421" style="mask-type:alpha" maskUnits="userSpaceOnUse" x="0" y="0" width="36" height="36">
<rect width="36" height="36" fill="#D9D9D9"/>
</mask>
<g mask="url(#mask0_145_1421)">
<path d="M31.4251 33.5625L27.0001 29.1375V32.475H24.0001V24H32.4751V27H29.1001L33.5251 31.425L31.4251 33.5625ZM18.0001 33C15.9251 33 13.9751 32.6062 12.1501 31.8187C10.3251 31.0312 8.73762 29.9625 7.38762 28.6125C6.03762 27.2625 4.96887 25.675 4.18137 23.85C3.39387 22.025 3.00012 20.075 3.00012 18C3.00012 15.925 3.39387 13.975 4.18137 12.15C4.96887 10.325 6.03762 8.7375 7.38762 7.3875C8.73762 6.0375 10.3251 4.96875 12.1501 4.18125C13.9751 3.39375 15.9251 3 18.0001 3C20.0751 3 22.0251 3.39375 23.8501 4.18125C25.6751 4.96875 27.2626 6.0375 28.6126 7.3875C29.9626 8.7375 31.0314 10.325 31.8189 12.15C32.6064 13.975 33.0001 15.925 33.0001 18C33.0001 18.5 32.9751 19 32.9251 19.5C32.8751 20 32.8001 20.5 32.7001 21H29.6251C29.7501 20.5 29.8439 20 29.9064 19.5C29.9689 19 30.0001 18.5 30.0001 18C30.0001 17.5 29.9689 17 29.9064 16.5C29.8439 16 29.7501 15.5 29.6251 15H24.5251C24.6001 15.5 24.6564 16 24.6939 16.5C24.7314 17 24.7501 17.5 24.7501 18C24.7501 18.5 24.7314 19 24.6939 19.5C24.6564 20 24.6001 20.5 24.5251 21H21.5251C21.6001 20.5 21.6564 20 21.6939 19.5C21.7314 19 21.7501 18.5 21.7501 18C21.7501 17.5 21.7314 17 21.6939 16.5C21.6564 16 21.6001 15.5 21.5251 15H14.4751C14.4001 15.5 14.3439 16 14.3064 16.5C14.2689 17 14.2501 17.5 14.2501 18C14.2501 18.5 14.2689 19 14.3064 19.5C14.3439 20 14.4001 20.5 14.4751 21H19.5001V24H15.1501C15.4501 25.075 15.8376 26.1062 16.3126 27.0937C16.7876 28.0812 17.3501 29.025 18.0001 29.925C18.5001 29.925 19.0001 29.8937 19.5001 29.8312C20.0001 29.7687 20.5001 29.7125 21.0001 29.6625V32.7375C20.5001 32.7875 20.0001 32.8437 19.5001 32.9062C19.0001 32.9687 18.5001 33 18.0001 33ZM6.37512 21H11.4751C11.4001 20.5 11.3439 20 11.3064 19.5C11.2689 19 11.2501 18.5 11.2501 18C11.2501 17.5 11.2689 17 11.3064 16.5C11.3439 16 11.4001 15.5 11.4751 15H6.37512C6.25012 15.5 6.15637 16 6.09387 16.5C6.03137 17 6.00012 17.5 6.00012 18C6.00012 18.5 6.03137 19 6.09387 19.5C6.15637 20 6.25012 20.5 6.37512 21ZM7.65012 12H12.0751C12.3001 11.075 12.5814 10.1687 12.9189 9.28125C13.2564 8.39375 13.6501 7.525 14.1001 6.675C12.7251 7.125 11.4876 7.80625 10.3876 8.71875C9.28762 9.63125 8.37512 10.725 7.65012 12ZM14.1001 29.325C13.6501 28.475 13.2564 27.6062 12.9189 26.7187C12.5814 25.8312 12.3001 24.925 12.0751 24H7.65012C8.37512 25.275 9.28762 26.3687 10.3876 27.2812C11.4876 28.1937 12.7251 28.875 14.1001 29.325ZM15.1501 12H20.8501C20.5501 10.925 20.1626 9.89375 19.6876 8.90625C19.2126 7.91875 18.6501 6.975 18.0001 6.075C17.3501 6.975 16.7876 7.91875 16.3126 8.90625C15.8376 9.89375 15.4501 10.925 15.1501 12ZM23.9251 12H28.3501C27.6251 10.725 26.7126 9.63125 25.6126 8.71875C24.5126 7.80625 23.2751 7.125 21.9001 6.675C22.3501 7.525 22.7439 8.39375 23.0814 9.28125C23.4189 10.1687 23.7001 11.075 23.9251 12Z" fill="white"/>
</g>
</svg>
